<?xml version="1.0" encoding="UTF-8"?>
<svg id="Warstwa_1" data-name="Warstwa 1" xmlns="http://www.w3.org/2000/svg" viewBox="0 0 20 20">
  <defs>
    <style>
      .cls-1 {
        fill-rule: evenodd;
      }

      .cls-1, .cls-2 {
        fill: #a5a4a4;
      }

      .cls-1, .cls-2, .cls-3 {
        stroke-width: 0px;
      }

      .cls-3 {
        fill: #333;
      }
    </style>
  </defs>
  <g id="Group_160" data-name="Group 160">
    <circle id="Ellipse_2" data-name="Ellipse 2" class="cls-3" cx="10" cy="10" r="10"/>
  </g>
  <path class="cls-1" d="M8.4,3.55v-1c-3.5.7-6.1,3.8-6.1,7.5s2.6,6.8,6.1,7.5v-1c-2.9-.7-5.1-3.4-5.1-6.5s2.2-5.9,5.1-6.5ZM11.6,2.45v1c2.9.7,5.1,3.4,5.1,6.5s-2.2,5.8-5.1,6.5v1c3.5-.7,6.1-3.8,6.1-7.5s-2.6-6.7-6.1-7.5Z"/>
  <g>
    <path class="cls-2" d="M4.76,12.1v-4.2h.59v4.2h-.59ZM5.11,12.1v-.54h1.14c.09,0,.47-.01.72-.3.05-.06.15-.17.17-.35.04-.28-.13-.48-.15-.49-.1-.1-.35-.2-.59-.2h-1.28v-.54h1.28c.2,0,.4-.05.49-.15.15-.1.2-.25.2-.44s-.05-.35-.2-.49c-.15-.15-.3-.15-.54-.15h-1.19v-.54h1.33c.4,0,.74.1.94.3s.3.49.3.84c0,.2-.05.4-.2.59-.15.2-.35.3-.64.35.08.01.38.07.59.35.2.25.2.52.2.64,0,.11,0,.48-.29.79-.36.39-.88.35-.94.34,0,0-1.33,0-1.33,0Z"/>
    <path class="cls-2" d="M8.62,12.1v-4.2h.59v4.2h-.59ZM8.86,10.32v-.54h1.43c.15,0,.3-.05.4-.2s.15-.3.15-.49-.05-.35-.15-.49-.25-.15-.4-.15h-1.43v-.54h1.43c.25,0,.44.05.64.15s.35.25.44.44.15.4.15.64-.05.44-.15.64-.3.3-.49.4-.4.15-.59.15h-1.43ZM10.99,12.1l-.99-1.93.59-.1,1.09,2.03h-.69Z"/>
    <path class="cls-2" d="M12.03,12.1l1.48-2.42,1.04-1.78h.64l-1.38,2.27-1.14,1.93h-.64ZM14.6,12.1l-1.09-1.83-.1-.15-1.38-2.22h.64l1.04,1.73.1.15,1.43,2.32h-.64Z"/>
  </g>
</svg>